# Blender v2.93.6 OBJ File: 'Obelisk.blend'
# www.blender.org
mtllib Obelisk.mtl
o Card_Cube.001
v -1.000000 -1.255293 0.010000
v -0.965610 -1.300000 0.010000
v -0.998828 -1.266864 0.010000
v -0.995393 -1.277647 0.010000
v -0.989928 -1.286906 0.010000
v -0.982805 -1.294011 0.010000
v -0.974511 -1.298477 0.010000
v -0.965610 1.300000 0.010000
v -1.000000 1.255293 0.010000
v -0.974511 1.298477 0.010000
v -0.982805 1.294011 0.010000
v -0.989928 1.286906 0.010000
v -0.995393 1.277647 0.010000
v -0.998828 1.266864 0.010000
v -0.965610 -1.300000 -0.010000
v -1.000000 -1.255293 -0.010000
v -0.974511 -1.298477 -0.010000
v -0.982805 -1.294011 -0.010000
v -0.989928 -1.286906 -0.010000
v -0.995393 -1.277647 -0.010000
v -0.998828 -1.266864 -0.010000
v -1.000000 1.255293 -0.010000
v -0.965610 1.300000 -0.010000
v -0.998828 1.266864 -0.010000
v -0.995393 1.277647 -0.010000
v -0.989928 1.286906 -0.010000
v -0.982805 1.294011 -0.010000
v -0.974511 1.298477 -0.010000
v 0.965610 -1.300000 0.010000
v 1.000000 -1.255293 0.010000
v 0.974511 -1.298477 0.010000
v 0.982805 -1.294011 0.010000
v 0.989928 -1.286906 0.010000
v 0.995393 -1.277647 0.010000
v 0.998828 -1.266864 0.010000
v 1.000000 1.255293 0.010000
v 0.965610 1.300000 0.010000
v 0.998828 1.266864 0.010000
v 0.995393 1.277647 0.010000
v 0.989928 1.286906 0.010000
v 0.982805 1.294011 0.010000
v 0.974511 1.298477 0.010000
v 1.000000 -1.255293 -0.010000
v 0.965610 -1.300000 -0.010000
v 0.998828 -1.266864 -0.010000
v 0.995393 -1.277647 -0.010000
v 0.989928 -1.286906 -0.010000
v 0.982805 -1.294011 -0.010000
v 0.974511 -1.298477 -0.010000
v 0.965610 1.300000 -0.010000
v 1.000000 1.255293 -0.010000
v 0.974511 1.298477 -0.010000
v 0.982805 1.294011 -0.010000
v 0.989928 1.286906 -0.010000
v 0.995393 1.277647 -0.010000
v 0.998828 1.266864 -0.010000
vt 0.982805 0.000000
vt 0.987256 0.000586
vt 0.991403 0.002304
vt 0.994964 0.005036
vt 0.997696 0.008598
vt 0.999414 0.012745
vt 1.000000 0.017195
vt 1.000000 0.982805
vt 0.999414 0.987256
vt 0.997696 0.991403
vt 0.994964 0.994964
vt 0.991403 0.997696
vt 0.987255 0.999414
vt 0.982805 1.000000
vt 0.017195 1.000000
vt 0.012744 0.999414
vt 0.008597 0.997696
vt 0.005036 0.994964
vt 0.002304 0.991403
vt 0.000586 0.987256
vt 0.000000 0.982805
vt 0.000000 0.017195
vt 0.000586 0.012744
vt 0.002304 0.008597
vt 0.005036 0.005036
vt 0.008597 0.002304
vt 0.012745 0.000586
vt 0.017195 0.000000
vt 0.982805 0.000000
vt 0.987256 0.000586
vt 0.991403 0.002304
vt 0.994964 0.005036
vt 0.997696 0.008598
vt 0.999414 0.012745
vt 1.000000 0.017195
vt 1.000000 0.982805
vt 0.999414 0.987256
vt 0.997696 0.991403
vt 0.994964 0.994964
vt 0.991403 0.997696
vt 0.987255 0.999414
vt 0.982805 1.000000
vt 0.017195 1.000000
vt 0.012744 0.999414
vt 0.008597 0.997696
vt 0.005036 0.994964
vt 0.002304 0.991403
vt 0.000586 0.987256
vt 0.000000 0.982805
vt 0.000000 0.017195
vt 0.000586 0.012744
vt 0.002304 0.008597
vt 0.005036 0.005036
vt 0.008597 0.002304
vt 0.012745 0.000586
vt 0.017195 0.000000
vt 0.500000 0.008597
vt 0.500000 0.491403
vt 0.000000 0.491403
vt 0.000000 0.008597
vt 0.508597 0.000000
vt 0.991403 0.000000
vt 0.991403 0.500000
vt 0.508597 0.500000
vt 1.000000 0.508597
vt 1.000000 0.991403
vt 0.500000 0.991403
vt 0.500000 0.508597
vt 0.008597 0.500000
vt 0.008597 1.000000
vt 0.006372 1.000000
vt 0.006372 0.500000
vt 0.004299 1.000000
vt 0.004299 0.500000
vt 0.000000 1.000000
vt 0.000000 0.500000
vt 0.500000 0.500000
vt 1.000000 0.500000
vt 1.000000 0.504299
vt 0.500000 0.504299
vt 1.000000 0.506372
vt 0.500000 0.506372
vt 0.993628 0.000000
vt 0.993628 0.500000
vt 0.995701 0.000000
vt 0.995701 0.500000
vt 1.000000 0.000000
vt 1.000000 0.500000
vt 1.000000 1.000000
vt 0.500000 1.000000
vt 0.500000 0.995701
vt 1.000000 0.995701
vt 0.500000 0.993628
vt 1.000000 0.993628
vt 0.491403 1.000000
vt 0.491403 0.500000
vt 0.493628 0.500000
vt 0.493628 1.000000
vt 0.495701 0.500000
vt 0.495701 1.000000
vt 0.500000 0.500000
vt 0.500000 1.000000
vt 0.000000 0.000000
vt 0.500000 0.000000
vt 0.500000 0.004299
vt 0.000000 0.004299
vt 0.500000 0.006372
vt 0.000000 0.006372
vt 0.506372 0.500000
vt 0.506372 0.000000
vt 0.504299 0.500000
vt 0.504299 0.000000
vt 0.500000 0.500000
vt 0.500000 0.000000
vt 0.500000 0.500000
vt 0.000000 0.500000
vt 0.000000 0.495701
vt 0.500000 0.495701
vt 0.000000 0.493628
vt 0.500000 0.493628
vn -0.0000 0.0000 1.0000
vn 0.0000 0.0000 -1.0000
vn 1.0000 0.0000 0.0000
vn 0.0000 1.0000 0.0000
vn -1.0000 0.0000 0.0000
vn -0.1687 -0.9857 0.0000
vn -0.4741 -0.8805 0.0000
vn -0.7062 -0.7080 0.0000
vn -0.8612 -0.5083 0.0000
vn -0.9528 -0.3036 0.0000
vn -0.9949 -0.1007 0.0000
vn -0.1687 0.9857 0.0000
vn -0.4741 0.8805 0.0000
vn -0.7062 0.7080 0.0000
vn -0.8612 0.5083 0.0000
vn -0.9528 0.3036 0.0000
vn -0.9949 0.1007 0.0000
vn 0.1687 -0.9857 0.0000
vn 0.4741 -0.8805 0.0000
vn 0.7062 -0.7080 0.0000
vn 0.8612 -0.5083 0.0000
vn 0.9528 -0.3036 0.0000
vn 0.9949 -0.1007 0.0000
vn 0.1687 0.9857 0.0000
vn 0.4741 0.8805 0.0000
vn 0.7062 0.7080 0.0000
vn 0.8612 0.5083 0.0000
vn 0.9528 0.3036 0.0000
vn 0.9949 0.1007 0.0000
vn 0.0000 -1.0000 0.0000
usemtl Front
s off
f 29/1/1 31/2/1 32/3/1 33/4/1 34/5/1 35/6/1 30/7/1 36/8/1 38/9/1 39/10/1 40/11/1 41/12/1 42/13/1 37/14/1 8/15/1 10/16/1 11/17/1 12/18/1 13/19/1 14/20/1 9/21/1 1/22/1 3/23/1 4/24/1 5/25/1 6/26/1 7/27/1 2/28/1
usemtl Back
f 15/29/2 17/30/2 18/31/2 19/32/2 20/33/2 21/34/2 16/35/2 22/36/2 24/37/2 25/38/2 26/39/2 27/40/2 28/41/2 23/42/2 50/43/2 52/44/2 53/45/2 54/46/2 55/47/2 56/48/2 51/49/2 43/50/2 45/51/2 46/52/2 47/53/2 48/54/2 49/55/2 44/56/2
usemtl Sides
f 43/57/3 51/58/3 36/59/3 30/60/3
f 50/61/4 23/62/4 8/63/4 37/64/4
f 1/65/5 9/66/5 22/67/5 16/68/5
f 15/69/6 2/70/6 7/71/6 17/72/6
f 17/72/7 7/71/7 6/73/7 18/74/7
f 18/74/8 6/73/8 5/75/8 19/76/8
f 19/77/9 5/78/9 4/79/9 20/80/9
f 20/80/10 4/79/10 3/81/10 21/82/10
f 21/82/11 3/81/11 1/65/11 16/68/11
f 8/63/12 23/62/12 28/83/12 10/84/12
f 10/84/13 28/83/13 27/85/13 11/86/13
f 11/86/14 27/85/14 26/87/14 12/88/14
f 12/89/15 26/90/15 25/91/15 13/92/15
f 13/92/16 25/91/16 24/93/16 14/94/16
f 14/94/17 24/93/17 22/67/17 9/66/17
f 29/95/18 44/96/18 49/97/18 31/98/18
f 31/98/19 49/97/19 48/99/19 32/100/19
f 32/100/20 48/99/20 47/101/20 33/102/20
f 33/103/21 47/104/21 46/105/21 34/106/21
f 34/106/22 46/105/22 45/107/22 35/108/22
f 35/108/23 45/107/23 43/57/23 30/60/23
f 50/61/24 37/64/24 42/109/24 52/110/24
f 52/110/25 42/109/25 41/111/25 53/112/25
f 53/112/26 41/111/26 40/113/26 54/114/26
f 54/115/27 40/116/27 39/117/27 55/118/27
f 55/118/28 39/117/28 38/119/28 56/120/28
f 56/120/29 38/119/29 36/59/29 51/58/29
f 15/69/30 44/96/30 29/95/30 2/70/30
